<svg xmlns="http://www.w3.org/2000/svg" width="256" height="256" viewBox="0 0 100 100"><rect width="100" height="100" rx="20" fill="#f5a623"></rect><path d="M31.96 75.02L9.01 51.26L9.01 77.27Q8.47 77.45 7.57 77.67Q6.67 77.90 5.59 77.90L5.59 77.90Q1.63 77.90 1.63 74.57L1.63 74.57L1.63 22.82Q2.08 22.64 3.02 22.41Q3.97 22.19 5.05 22.19L5.05 22.19Q9.01 22.19 9.01 25.52L9.01 25.52L9.01 47.93L33.76 22.28Q36.10 22.37 37.27 23.45Q38.44 24.53 38.44 25.97L38.44 25.97Q38.44 27.14 37.81 28.13Q37.18 29.12 36.01 30.29L36.01 30.29L16.57 49.37Q24.76 57.38 30.74 63.63Q36.73 69.89 41.05 73.76L41.05 73.76Q40.87 75.74 39.83 76.86Q38.80 77.99 37.18 77.99L37.18 77.99Q35.65 77.99 34.43 77.14Q33.22 76.28 31.96 75.02L31.96 75.02ZM90.91 49.37L90.91 49.37Q90.91 43.61 89.15 39.52Q87.40 35.42 84.38 32.81Q81.37 30.20 77.36 28.98Q73.36 27.77 68.77 27.77L68.77 27.77Q65.89 27.77 63.77 27.95Q61.66 28.13 59.86 28.49L59.86 28.49L59.86 71.33Q62.02 71.87 64.49 72.05Q66.97 72.23 69.58 72.23L69.58 72.23Q80.20 72.23 85.55 66.47Q90.91 60.71 90.91 49.37ZM98.38 49.37L98.38 49.37Q98.38 56.75 96.35 62.20Q94.33 67.64 90.59 71.24Q86.86 74.84 81.55 76.59Q76.24 78.35 69.67 78.35L69.67 78.35Q66.79 78.35 63.19 78.13Q59.59 77.90 56.35 76.91L56.35 76.91Q52.57 75.74 52.57 72.77L52.57 72.77L52.57 26.51Q52.57 25.07 53.29 24.30Q54.01 23.54 55.54 23.09L55.54 23.09Q58.33 22.19 61.84 21.92Q65.34 21.65 68.86 21.65L68.86 21.65Q75.43 21.65 80.87 23.41Q86.31 25.16 90.19 28.63Q94.06 32.09 96.22 37.27Q98.38 42.44 98.38 49.37Z" fill="#fff"></path></svg>